<svg width="892" height="15" fill="none" xmlns="http://www.w3.org/2000/svg"><path fill-rule="evenodd" clip-rule="evenodd" d="M1 7.5C1 3.916 3.916 1 7.5 1S14 3.916 14 7.5 11.084 14 7.5 14A6.507 6.507 0 011 7.5zm.852 0A5.654 5.654 0 007.5 13.148 5.654 5.654 0 0013.147 7.5 5.654 5.654 0 007.5 1.853 5.654 5.654 0 001.852 7.5z" fill="#53B43B"/><path d="M13.147 7.5h-.25.25zM7.5.75A6.757 6.757 0 00.75 7.5h.5A6.257 6.257 0 017.5 1.25v-.5zm6.75 6.75A6.757 6.757 0 007.5.75v.5a6.257 6.257 0 016.25 6.25h.5zM7.5 14.25a6.757 6.757 0 006.75-6.75h-.5a6.257 6.257 0 01-6.25 6.25v.5zM.75 7.5a6.757 6.757 0 006.75 6.75v-.5A6.257 6.257 0 011.25 7.5h-.5zm6.75 5.398A5.404 5.404 0 012.102 7.5h-.5A5.904 5.904 0 007.5 13.398v-.5zM12.897 7.5A5.404 5.404 0 017.5 12.898v.5A5.904 5.904 0 0013.397 7.5h-.5zM7.5 2.103A5.404 5.404 0 0112.897 7.5h.5A5.904 5.904 0 007.5 1.603v.5zM2.102 7.5A5.404 5.404 0 017.5 2.103v-.5A5.904 5.904 0 001.602 7.5h.5z" fill="#53B43B"/><path fill-rule="evenodd" clip-rule="evenodd" d="M586 7.5c0-3.584 2.916-6.5 6.5-6.5s6.5 2.916 6.5 6.5-2.916 6.5-6.5 6.5a6.507 6.507 0 01-6.5-6.5zm.852 0a5.654 5.654 0 005.648 5.648 5.654 5.654 0 005.647-5.648 5.654 5.654 0 00-5.647-5.647 5.654 5.654 0 00-5.648 5.647z" fill="#53B43B"/><path d="M598.147 7.5h-.25.25zM592.5.75a6.757 6.757 0 00-6.75 6.75h.5a6.257 6.257 0 016.25-6.25v-.5zm6.75 6.75A6.757 6.757 0 00592.5.75v.5a6.257 6.257 0 016.25 6.25h.5zm-6.75 6.75a6.757 6.757 0 006.75-6.75h-.5a6.257 6.257 0 01-6.25 6.25v.5zm-6.75-6.75a6.757 6.757 0 006.75 6.75v-.5a6.257 6.257 0 01-6.25-6.25h-.5zm6.75 5.398a5.404 5.404 0 01-5.398-5.398h-.5a5.904 5.904 0 005.898 5.898v-.5zm5.397-5.398a5.403 5.403 0 01-5.397 5.398v.5a5.904 5.904 0 005.897-5.898h-.5zM592.5 2.103a5.403 5.403 0 015.397 5.397h.5a5.904 5.904 0 00-5.897-5.897v.5zM587.102 7.5a5.404 5.404 0 015.398-5.397v-.5a5.904 5.904 0 00-5.898 5.897h.5z" fill="#53B43B"/><path fill-rule="evenodd" clip-rule="evenodd" d="M293 7.5c0-3.584 2.916-6.5 6.5-6.5s6.5 2.916 6.5 6.5-2.916 6.5-6.5 6.5a6.507 6.507 0 01-6.5-6.5zm.852 0a5.654 5.654 0 005.648 5.648 5.654 5.654 0 005.647-5.648 5.654 5.654 0 00-5.647-5.647 5.654 5.654 0 00-5.648 5.647z" fill="#53B43B"/><path d="M305.147 7.5h-.25.25zM299.5.75a6.757 6.757 0 00-6.75 6.75h.5a6.257 6.257 0 016.25-6.25v-.5zm6.75 6.75A6.757 6.757 0 00299.5.75v.5a6.257 6.257 0 016.25 6.25h.5zm-6.75 6.75a6.757 6.757 0 006.75-6.75h-.5a6.257 6.257 0 01-6.25 6.25v.5zm-6.75-6.75a6.757 6.757 0 006.75 6.75v-.5a6.257 6.257 0 01-6.25-6.25h-.5zm6.75 5.398a5.404 5.404 0 01-5.398-5.398h-.5a5.904 5.904 0 005.898 5.898v-.5zm5.397-5.398a5.403 5.403 0 01-5.397 5.398v.5a5.904 5.904 0 005.897-5.898h-.5zM299.5 2.103a5.403 5.403 0 015.397 5.397h.5a5.904 5.904 0 00-5.897-5.897v.5zM294.102 7.5a5.404 5.404 0 015.398-5.397v-.5a5.904 5.904 0 00-5.898 5.897h.5z" fill="#53B43B"/><path fill-rule="evenodd" clip-rule="evenodd" d="M878 7.5c0-3.584 2.916-6.5 6.5-6.5s6.5 2.916 6.5 6.5-2.916 6.5-6.5 6.5a6.507 6.507 0 01-6.5-6.5zm.852 0a5.654 5.654 0 005.648 5.648 5.654 5.654 0 005.647-5.648 5.654 5.654 0 00-5.647-5.647 5.654 5.654 0 00-5.648 5.647z" fill="#53B43B"/><path d="M890.147 7.5h-.25.25zM884.5.75a6.757 6.757 0 00-6.75 6.75h.5a6.257 6.257 0 016.25-6.25v-.5zm6.75 6.75A6.757 6.757 0 00884.5.75v.5a6.257 6.257 0 016.25 6.25h.5zm-6.75 6.75a6.757 6.757 0 006.75-6.75h-.5a6.257 6.257 0 01-6.25 6.25v.5zm-6.75-6.75a6.757 6.757 0 006.75 6.75v-.5a6.257 6.257 0 01-6.25-6.25h-.5zm6.75 5.398a5.404 5.404 0 01-5.398-5.398h-.5a5.904 5.904 0 005.898 5.898v-.5zm5.397-5.398a5.403 5.403 0 01-5.397 5.398v.5a5.904 5.904 0 005.897-5.898h-.5zM884.5 2.103a5.403 5.403 0 015.397 5.397h.5a5.904 5.904 0 00-5.897-5.897v.5zM879.102 7.5a5.404 5.404 0 015.398-5.397v-.5a5.904 5.904 0 00-5.898 5.897h.5z" fill="#53B43B"/><path d="M9.292 5.139L6.028 8.858l-1.32-1.503a.38.38 0 00-.586 0 .52.52 0 000 .669l1.612 1.838a.39.39 0 00.294.138.39.39 0 00.293-.139h.001l3.556-4.054a.52.52 0 000-.668.38.38 0 00-.586 0zm585 0l-3.264 3.719-1.319-1.503a.38.38 0 00-.587 0 .519.519 0 000 .669l1.612 1.838a.391.391 0 00.294.138.389.389 0 00.293-.139h.001l3.556-4.054a.519.519 0 000-.668.379.379 0 00-.586 0zm-293 0l-3.264 3.719-1.319-1.503a.38.38 0 00-.587 0 .519.519 0 000 .669l1.612 1.838a.391.391 0 00.294.138.389.389 0 00.293-.139h.001l3.556-4.054a.519.519 0 000-.668.379.379 0 00-.586 0zm585 0l-3.264 3.719-1.319-1.503a.38.38 0 00-.587 0 .519.519 0 000 .669l1.612 1.838a.391.391 0 00.294.138.389.389 0 00.293-.139h.001l3.556-4.054a.519.519 0 000-.668.379.379 0 00-.586 0z" fill="#53B43B" stroke="#53B43B" stroke-width=".5"/></svg>